<svg width="109" height="116" viewBox="0 0 109 116" fill="none" xmlns="http://www.w3.org/2000/svg">
<path opacity="0.4" fill-rule="evenodd" clip-rule="evenodd" d="M92.7247 32.6044C101.713 32.6044 109 25.3057 109 16.3022C109 7.29875 101.713 0 92.7247 0C83.736 0 76.4493 7.29875 76.4493 16.3022C76.4493 25.3057 83.736 32.6044 92.7247 32.6044ZM39.674 56.964H37.8101V54.9651L29.1564 50.1676H8.12119V107.604H0V116H97.0548V107.604H87.7354V57.8969H64.9695V36.4414H54.7181V18.8505C54.7181 17.5179 53.6531 16.4518 52.3217 16.4518C50.9904 16.4518 49.9253 17.5179 49.9253 18.8505V36.4414H39.674V56.964ZM11.9821 55.0983H25.0292V60.8287H11.9821V55.0983ZM11.9821 86.2821H25.0292V92.0125H11.9821V86.2821ZM11.9821 75.8875H25.0292V81.6179H11.9821V75.8875ZM11.9821 65.4929H25.0292V71.2233H11.9821V65.4929ZM80.0136 91.3461H77.7503C77.0847 91.3461 76.5521 91.8792 76.5521 92.5455V99.7418C76.5521 100.408 77.0847 100.941 77.7503 100.941H80.0136C80.6793 100.941 81.2118 100.408 81.2118 99.7418V92.5455C81.2118 91.8792 80.6793 91.3461 80.0136 91.3461ZM80.0136 77.62H77.7503C77.0847 77.62 76.5521 78.153 76.5521 78.8193V85.8823C76.5521 86.5487 77.0847 87.0817 77.7503 87.0817H80.0136C80.6793 87.0817 81.2118 86.5487 81.2118 85.8823V78.8193C81.2118 78.153 80.6793 77.62 80.0136 77.62ZM80.0136 63.7605H77.7503C77.0847 63.7605 76.5521 64.2936 76.5521 64.9599V72.1561C76.5521 72.8224 77.0847 73.3555 77.7503 73.3555H80.0136C80.6793 73.3555 81.2118 72.8224 81.2118 72.1561V64.9599C81.2118 64.2936 80.6793 63.7605 80.0136 63.7605ZM55.9163 42.5715H48.594C47.662 42.5715 46.9964 43.2378 46.9964 44.1707V50.3008C46.9964 51.2337 47.662 51.9 48.594 51.9H55.9163C56.8483 51.9 57.6471 51.2337 57.6471 50.3008V44.1707C57.6471 43.2378 56.8483 42.5715 55.9163 42.5715ZM46.8632 62.4279H40.8722C39.8071 62.4279 38.8752 63.3607 38.8752 64.4268V69.8906C38.8752 70.9568 39.8071 71.8896 40.8722 71.8896H46.8632C47.9283 71.8896 48.8602 70.9568 48.8602 69.8906V64.4268C48.8602 63.3607 47.9283 62.4279 46.8632 62.4279ZM63.7713 62.4279H57.7802C56.7151 62.4279 55.7832 63.3607 55.7832 64.4268V69.8906C55.7832 70.9568 56.7151 71.8896 57.7802 71.8896H63.7713C64.8363 71.8896 65.7683 70.9568 65.7683 69.8906V64.4268C65.7683 63.3607 64.8363 62.4279 63.7713 62.4279ZM46.8632 77.8865H40.8722C39.8071 77.8865 38.8752 78.8193 38.8752 79.8855V85.216C38.8752 86.2821 39.8071 87.215 40.8722 87.215H46.8632C47.9283 87.215 48.8602 86.2821 48.8602 85.216V79.8855C48.8602 78.8193 47.9283 77.8865 46.8632 77.8865ZM63.7713 77.8865H57.7802C56.7151 77.8865 55.7832 78.8193 55.7832 79.8855V85.216C55.7832 86.2821 56.7151 87.215 57.7802 87.215H63.7713C64.8363 87.215 65.7683 86.2821 65.7683 85.216V79.8855C65.7683 78.8193 64.8363 77.8865 63.7713 77.8865ZM46.8632 93.2118H40.8722C39.8071 93.2118 38.8752 94.1447 38.8752 95.2108V100.675C38.8752 101.741 39.8071 102.674 40.8722 102.674H46.8632C47.9283 102.674 48.8602 101.741 48.8602 100.675V95.2108C48.8602 94.1447 47.9283 93.2118 46.8632 93.2118ZM63.7713 93.2118H57.7802C56.7151 93.2118 55.7832 94.1447 55.7832 95.2108V100.675C55.7832 101.741 56.7151 102.674 57.7802 102.674H63.7713C64.8363 102.674 65.7683 101.741 65.7683 100.675V95.2108C65.7683 94.1447 64.8363 93.2118 63.7713 93.2118Z" fill="#8CA4B3"/>
</svg>
